<?xml version="1.0" encoding="UTF-8"?>
<svg xmlns="http://www.w3.org/2000/svg" viewBox="0 0 558.89 151.68"><script xmlns="" src="moz-extension://2594bd28-5c53-4f8f-9bc7-27dacdf9a998/js/elephant.js"/>
  <defs>
    <style>
      .cls-1 {
        fill: #fff;
      }
    </style>
  </defs>
  <g id="PopulAI">
    <g>
      <path class="cls-1" d="M460.68,81.73l-4.1-38.06-18.55,42.07,9.72-.64,10.6-.72c.24-1.28,1.2-2.25,2.33-2.65Z"/>
      <g>
        <path class="cls-1" d="M510.3,100.28l-5.86-40.15-.72-5.22c-.64-.08-1.28-.32-1.77-.64l-37.02,29.23c.24.48.4,1.04.4,1.61v.24l43.44,16.14c.4-.48.88-.96,1.53-1.2Z"/>
        <path class="cls-1" d="M463.89,82.21l37.02-29.15c-.24-.4-.4-.88-.4-1.45l-42.56-9.96,4.34,39.91c.56.08,1.12.32,1.61.64Z"/>
        <path class="cls-1" d="M500.98,50.02c.4-1.04,1.37-1.77,2.41-2.01v-15.98l-42.4,8.67,39.99,9.31Z"/>
        <path class="cls-1" d="M461.8,88.64h0c-1.69,0-3.05-1.12-3.37-2.65l-19.99,1.28,30.83,34.85-7.47-33.48Z"/>
      </g>
      <g>
        <path class="cls-1" d="M508.05,103.57c0-.24,0-.4.08-.64l-43.28-16.06c-.32.56-.88,1.04-1.45,1.37l7.95,35.65,36.86-19.51c-.16-.24-.16-.48-.16-.8Z"/>
        <path class="cls-1" d="M512.22,107.11c-.24.08-.48.08-.72.08-1.12,0-2.09-.56-2.73-1.37l-33.48,17.75,41.27-6.34-4.34-10.12Z"/>
        <path class="cls-1" d="M524.99,65.27l-18.55-11.24c-.32.32-.72.56-1.12.72l6.58,45.37c.4,0,.72.08,1.12.24l22.8-28.67-10.84-6.42Z"/>
        <path class="cls-1" d="M505,48.01c1.53.4,2.73,1.77,2.73,3.45,0,.4-.08.8-.24,1.2l26.1,15.74-28.59-35.09v14.69Z"/>
        <path class="cls-1" d="M515.12,103.57c0,1.12-.56,2.17-1.37,2.81l4.01,9.39,16.3-39.26-19.75,24.81c.48.64.8,1.45.8,2.25Z"/>
      </g>
    </g>
  </g>
  <g id="Layer_3" data-name="Layer 3">
    <g>
      <path class="cls-1" d="M41.53,114.14c-4.14,0-7.89-1.07-11.24-3.21-3.35-2.14-6-5.3-7.96-9.48s-2.93-9.31-2.93-15.39,1.01-11.45,3.02-15.61c2.01-4.15,4.69-7.27,8.04-9.34,3.35-2.07,7.02-3.11,11.03-3.11,3.05,0,5.6.51,7.65,1.54,2.05,1.03,3.71,2.31,4.97,3.83,1.27,1.53,2.23,3.02,2.89,4.49h.46v-27.34h15.09v72.73h-14.92v-8.74h-.64c-.71,1.52-1.71,3.01-3,4.49-1.29,1.48-2.96,2.71-5.01,3.68s-4.54,1.46-7.47,1.46ZM46.33,102.1c2.44,0,4.5-.67,6.2-2.01,1.69-1.34,3-3.21,3.91-5.63.91-2.41,1.37-5.24,1.37-8.49s-.45-6.06-1.35-8.45c-.9-2.39-2.2-4.24-3.91-5.54-1.71-1.3-3.78-1.95-6.21-1.95s-4.58.67-6.29,2.02c-1.71,1.35-3,3.22-3.87,5.61-.88,2.39-1.31,5.16-1.31,8.31s.44,5.97,1.33,8.4c.89,2.43,2.18,4.32,3.87,5.68,1.69,1.36,3.78,2.04,6.27,2.04Z"/>
      <path class="cls-1" d="M109.61,114.31c-5.52,0-10.28-1.18-14.29-3.53-4.01-2.35-7.11-5.65-9.29-9.87-2.18-4.23-3.27-9.13-3.27-14.72s1.09-10.57,3.27-14.79c2.18-4.23,5.27-7.52,9.29-9.87,4.01-2.36,8.78-3.53,14.29-3.53s10.28,1.18,14.29,3.53c4.01,2.36,7.11,5.65,9.29,9.87,2.18,4.23,3.27,9.16,3.27,14.79s-1.09,10.49-3.27,14.72c-2.18,4.23-5.27,7.52-9.29,9.87-4.01,2.36-8.78,3.53-14.29,3.53ZM109.68,102.59c2.51,0,4.6-.72,6.29-2.15,1.68-1.43,2.95-3.39,3.82-5.88.86-2.49,1.3-5.31,1.3-8.49s-.43-6-1.3-8.49c-.87-2.49-2.14-4.45-3.82-5.9-1.68-1.44-3.78-2.17-6.29-2.17s-4.66.72-6.37,2.17c-1.72,1.44-3.01,3.41-3.87,5.9-.86,2.49-1.3,5.31-1.3,8.49s.43,6,1.3,8.49c.86,2.49,2.15,4.45,3.87,5.88,1.72,1.43,3.84,2.15,6.37,2.15Z"/>
      <path class="cls-1" d="M146.33,113.25v-54.55h14.42v9.62h.64c1.14-3.2,3.03-5.72,5.68-7.56s5.82-2.77,9.52-2.77,6.92.93,9.55,2.79c2.63,1.86,4.38,4.37,5.26,7.55h.57c1.11-3.12,3.13-5.63,6.05-7.51s6.39-2.82,10.39-2.82c5.09,0,9.23,1.62,12.41,4.85,3.18,3.23,4.78,7.81,4.78,13.72v36.68h-15.09v-33.7c0-3.03-.8-5.3-2.42-6.82-1.61-1.51-3.62-2.27-6.04-2.27-2.75,0-4.89.87-6.43,2.61-1.54,1.74-2.31,4.03-2.31,6.87v33.31h-14.67v-34.02c0-2.67-.76-4.81-2.29-6.39-1.53-1.59-3.53-2.38-6.02-2.38-1.68,0-3.19.42-4.53,1.26-1.34.84-2.4,2.01-3.18,3.52-.78,1.5-1.17,3.26-1.17,5.27v32.74h-15.13Z"/>
      <path class="cls-1" d="M245.12,51.67c-2.25,0-4.17-.75-5.77-2.24-1.6-1.49-2.4-3.29-2.4-5.4s.8-3.91,2.42-5.42c1.61-1.5,3.53-2.26,5.75-2.26s4.17.75,5.77,2.24c1.6,1.49,2.4,3.29,2.4,5.4s-.8,3.91-2.4,5.42c-1.6,1.5-3.52,2.25-5.77,2.25ZM237.52,113.25v-54.55h15.13v54.55h-15.13Z"/>
      <path class="cls-1" d="M279.85,81.71v31.53h-15.13v-54.55h14.42v9.62h.64c1.21-3.17,3.23-5.69,6.07-7.55,2.84-1.86,6.29-2.79,10.33-2.79,3.79,0,7.09.83,9.91,2.49,2.82,1.66,5.01,4.02,6.57,7.08,1.56,3.07,2.34,6.72,2.34,10.96v34.73h-15.13v-32.03c.02-3.34-.83-5.95-2.56-7.83-1.73-1.88-4.11-2.82-7.14-2.82-2.04,0-3.83.44-5.38,1.31-1.55.88-2.76,2.15-3.62,3.82s-1.31,3.68-1.33,6.02Z"/>
      <path class="cls-1" d="M330.63,113.25h-6.96l26.46-72.73h7.1l26.46,72.73h-6.96l-22.8-64.1h-.5l-22.8,64.1ZM335.64,85.37h36.08v5.97h-36.08v-5.97Z"/>
      <path class="cls-1" d="M402.79,40.52v72.73h-6.64V40.52h6.64Z"/>
    </g>
  </g>
</svg>