<?xml version="1.0" encoding="UTF-8"?>
<svg xmlns="http://www.w3.org/2000/svg" viewBox="0 0 530.44 151.78"><script xmlns="" src="moz-extension://2594bd28-5c53-4f8f-9bc7-27dacdf9a998/js/elephant.js"/>
  <defs>
    <style>
      .cls-1 {
        fill: #fff;
      }
    </style>
  </defs>
  <g id="PopulAI">
    <g>
      <path class="cls-1" d="M432.91,81.73l-4.1-38.06-18.55,42.07,9.72-.64,10.6-.72c.24-1.28,1.2-2.25,2.33-2.65Z"/>
      <g>
        <path class="cls-1" d="M482.53,100.28l-5.86-40.15-.72-5.22c-.64-.08-1.28-.32-1.77-.64l-37.02,29.23c.24.48.4,1.04.4,1.61v.24l43.44,16.14c.4-.48.88-.96,1.53-1.2Z"/>
        <path class="cls-1" d="M436.12,82.21l37.02-29.15c-.24-.4-.4-.88-.4-1.45l-42.56-9.96,4.34,39.91c.56.08,1.12.32,1.61.64Z"/>
        <path class="cls-1" d="M473.21,50.02c.4-1.04,1.37-1.77,2.41-2.01v-15.98l-42.4,8.67,39.99,9.31Z"/>
        <path class="cls-1" d="M434.03,88.64h0c-1.69,0-3.05-1.12-3.37-2.65l-19.99,1.28,30.83,34.85-7.47-33.48Z"/>
      </g>
      <g>
        <path class="cls-1" d="M480.28,103.57c0-.24,0-.4.08-.64l-43.28-16.06c-.32.56-.88,1.04-1.45,1.37l7.95,35.65,36.86-19.51c-.16-.24-.16-.48-.16-.8Z"/>
        <path class="cls-1" d="M484.46,107.11c-.24.08-.48.08-.72.08-1.12,0-2.09-.56-2.73-1.37l-33.48,17.75,41.27-6.34-4.34-10.12Z"/>
        <path class="cls-1" d="M497.22,65.27l-18.55-11.24c-.32.32-.72.56-1.12.72l6.58,45.37c.4,0,.72.08,1.12.24l22.8-28.67-10.84-6.42Z"/>
        <path class="cls-1" d="M477.23,48.01c1.53.4,2.73,1.77,2.73,3.45,0,.4-.08.8-.24,1.2l26.1,15.74-28.59-35.09v14.69Z"/>
        <path class="cls-1" d="M487.35,103.57c0,1.12-.56,2.17-1.37,2.81l4.01,9.39,16.3-39.26-19.75,24.81c.48.64.8,1.45.8,2.25Z"/>
      </g>
    </g>
  </g>
  <g id="Layer_4" data-name="Layer 4">
    <g>
      <path class="cls-1" d="M40.42,114.58c-5.52,0-10.28-1.18-14.29-3.53-4.01-2.35-7.11-5.65-9.29-9.87-2.18-4.23-3.27-9.13-3.27-14.72s1.09-10.57,3.27-14.79c2.18-4.23,5.27-7.52,9.29-9.87,4.01-2.36,8.78-3.53,14.29-3.53s10.28,1.18,14.29,3.53c4.01,2.36,7.11,5.65,9.29,9.87,2.18,4.23,3.27,9.16,3.27,14.79s-1.09,10.49-3.27,14.72c-2.18,4.23-5.27,7.52-9.29,9.87-4.01,2.36-8.78,3.53-14.29,3.53ZM40.49,102.86c2.51,0,4.6-.72,6.29-2.15,1.68-1.43,2.95-3.39,3.82-5.88.86-2.49,1.3-5.31,1.3-8.49s-.43-6-1.3-8.49c-.86-2.49-2.14-4.45-3.82-5.9-1.68-1.44-3.78-2.17-6.29-2.17s-4.66.72-6.37,2.17c-1.72,1.44-3.01,3.41-3.87,5.9-.86,2.49-1.3,5.31-1.3,8.49s.43,6,1.3,8.49c.86,2.49,2.15,4.45,3.87,5.88,1.72,1.43,3.84,2.15,6.37,2.15Z"/>
      <path class="cls-1" d="M77.14,133.97V58.97h14.91v9.16h.68c.66-1.47,1.63-2.96,2.89-4.49s2.92-2.81,4.97-3.83c2.05-1.03,4.6-1.54,7.65-1.54,3.98,0,7.65,1.04,11.01,3.11,3.36,2.07,6.05,5.18,8.06,9.34,2.01,4.16,3.02,9.36,3.02,15.61s-.98,11.22-2.93,15.39-4.6,7.34-7.95,9.48c-3.35,2.14-7.1,3.21-11.24,3.21-2.94,0-5.43-.49-7.47-1.46-2.05-.97-3.72-2.2-5.03-3.68-1.3-1.48-2.3-2.98-2.98-4.49h-.46v29.19h-15.13ZM91.95,86.24c0,3.24.45,6.07,1.35,8.49.9,2.42,2.2,4.29,3.91,5.63,1.7,1.34,3.78,2.01,6.21,2.01s4.55-.68,6.25-2.04,3-3.25,3.89-5.68c.89-2.43,1.33-5.23,1.33-8.4s-.44-5.92-1.31-8.31c-.88-2.39-2.17-4.26-3.87-5.61-1.71-1.35-3.8-2.02-6.29-2.02s-4.54.65-6.23,1.95c-1.69,1.3-2.99,3.15-3.89,5.54-.9,2.39-1.35,5.21-1.35,8.45Z"/>
      <path class="cls-1" d="M169.4,58.97v11.36h-32.85v-11.36h32.85ZM144.01,45.9h15.13v50.85c0,1.4.21,2.48.64,3.25.43.77,1.02,1.31,1.79,1.62.77.31,1.66.46,2.68.46.71,0,1.42-.07,2.13-.2.71-.13,1.25-.23,1.63-.3l2.38,11.26c-.76.24-1.82.51-3.2.83-1.37.32-3.04.52-5.01.59-3.65.14-6.84-.34-9.57-1.46-2.73-1.11-4.86-2.84-6.38-5.18s-2.26-5.3-2.24-8.88v-52.84Z"/>
      <path class="cls-1" d="M186.83,51.94c-2.25,0-4.17-.75-5.77-2.24-1.6-1.49-2.4-3.29-2.4-5.4s.8-3.91,2.41-5.42c1.61-1.5,3.53-2.26,5.75-2.26s4.17.75,5.77,2.24c1.6,1.49,2.4,3.29,2.4,5.4s-.8,3.91-2.4,5.42c-1.6,1.5-3.52,2.25-5.77,2.25ZM179.24,113.52v-54.55h15.13v54.55h-15.13Z"/>
      <path class="cls-1" d="M206.44,113.52v-54.55h14.42v9.62h.64c1.14-3.2,3.03-5.72,5.68-7.56,2.65-1.85,5.82-2.77,9.52-2.77s6.92.93,9.55,2.79c2.63,1.86,4.38,4.37,5.26,7.55h.57c1.11-3.12,3.13-5.63,6.05-7.51s6.39-2.82,10.39-2.82c5.09,0,9.23,1.62,12.41,4.85,3.18,3.23,4.78,7.81,4.78,13.72v36.68h-15.09v-33.7c0-3.03-.8-5.3-2.41-6.82-1.61-1.51-3.62-2.27-6.04-2.27-2.75,0-4.89.87-6.43,2.61s-2.31,4.03-2.31,6.87v33.31h-14.67v-34.02c0-2.67-.76-4.81-2.29-6.39-1.53-1.59-3.53-2.38-6.02-2.38-1.68,0-3.19.42-4.53,1.26-1.34.84-2.4,2.01-3.18,3.52-.78,1.5-1.17,3.26-1.17,5.27v32.74h-15.13Z"/>
      <path class="cls-1" d="M301.36,113.52h-6.96l26.46-72.73h7.1l26.46,72.73h-6.96l-22.8-64.1h-.5l-22.8,64.1ZM306.36,85.64h36.08v5.97h-36.08v-5.97Z"/>
      <path class="cls-1" d="M373.52,40.79v72.73h-6.64V40.79h6.64Z"/>
    </g>
  </g>
</svg>