<?xml version="1.0" encoding="UTF-8"?>
<svg id="PopulAI" xmlns="http://www.w3.org/2000/svg" viewBox="0 0 530.44 151.85"><script xmlns="" src="moz-extension://2594bd28-5c53-4f8f-9bc7-27dacdf9a998/js/elephant.js"/>
  <defs>
    <style>
      .cls-1 {
        fill: #fff;
      }
    </style>
  </defs>
  <g>
    <path class="cls-1" d="M21.15,134.62V59.62h14.91v9.16h.67c.66-1.47,1.63-2.97,2.89-4.49,1.27-1.53,2.92-2.81,4.97-3.84,2.05-1.03,4.6-1.54,7.65-1.54,3.98,0,7.65,1.04,11.01,3.11,3.36,2.07,6.05,5.18,8.06,9.34,2.01,4.15,3.02,9.36,3.02,15.61s-.98,11.22-2.93,15.39c-1.95,4.18-4.6,7.34-7.95,9.48-3.35,2.14-7.1,3.21-11.24,3.21-2.94,0-5.43-.49-7.48-1.46-2.05-.97-3.72-2.2-5.02-3.67-1.3-1.48-2.3-2.98-2.98-4.49h-.46v29.19h-15.13ZM35.95,86.89c0,3.24.45,6.07,1.35,8.49.9,2.42,2.2,4.29,3.91,5.63,1.7,1.34,3.78,2.01,6.21,2.01s4.55-.68,6.25-2.04,3-3.25,3.89-5.68c.89-2.43,1.33-5.23,1.33-8.4s-.44-5.92-1.31-8.31c-.88-2.39-2.17-4.26-3.87-5.61-1.7-1.35-3.8-2.02-6.29-2.02s-4.54.65-6.23,1.95c-1.69,1.3-2.99,3.15-3.89,5.54-.9,2.39-1.35,5.21-1.35,8.45Z"/>
    <path class="cls-1" d="M109.03,115.23c-5.52,0-10.28-1.18-14.29-3.53-4.01-2.36-7.11-5.65-9.29-9.87s-3.27-9.13-3.27-14.72,1.09-10.56,3.27-14.79c2.18-4.23,5.27-7.52,9.29-9.87,4.01-2.36,8.78-3.53,14.29-3.53s10.28,1.18,14.29,3.53,7.11,5.65,9.29,9.87c2.18,4.23,3.27,9.16,3.27,14.79s-1.09,10.49-3.27,14.72-5.27,7.52-9.29,9.87-8.78,3.53-14.29,3.53ZM109.11,103.51c2.51,0,4.6-.72,6.29-2.15,1.68-1.43,2.95-3.39,3.82-5.88.86-2.49,1.3-5.31,1.3-8.49s-.43-6-1.3-8.49c-.86-2.49-2.14-4.45-3.82-5.89-1.68-1.44-3.78-2.17-6.29-2.17s-4.66.72-6.37,2.17c-1.72,1.44-3.01,3.41-3.87,5.89-.86,2.49-1.3,5.32-1.3,8.49s.43,6,1.3,8.49c.86,2.49,2.15,4.45,3.87,5.88,1.72,1.43,3.84,2.15,6.37,2.15Z"/>
    <path class="cls-1" d="M145.75,134.62V59.62h14.91v9.16h.67c.66-1.47,1.63-2.97,2.89-4.49,1.27-1.53,2.92-2.81,4.97-3.84,2.05-1.03,4.6-1.54,7.65-1.54,3.98,0,7.65,1.04,11.01,3.11,3.36,2.07,6.05,5.18,8.06,9.34,2.01,4.15,3.02,9.36,3.02,15.61s-.98,11.22-2.93,15.39c-1.95,4.18-4.6,7.34-7.95,9.48-3.35,2.14-7.1,3.21-11.24,3.21-2.94,0-5.43-.49-7.48-1.46-2.05-.97-3.72-2.2-5.02-3.67-1.3-1.48-2.3-2.98-2.98-4.49h-.46v29.19h-15.13ZM160.56,86.89c0,3.24.45,6.07,1.35,8.49.9,2.42,2.2,4.29,3.91,5.63,1.7,1.34,3.78,2.01,6.21,2.01s4.55-.68,6.25-2.04,3-3.25,3.89-5.68c.89-2.43,1.33-5.23,1.33-8.4s-.44-5.92-1.31-8.31c-.88-2.39-2.17-4.26-3.87-5.61-1.7-1.35-3.8-2.02-6.29-2.02s-4.54.65-6.23,1.95c-1.69,1.3-2.99,3.15-3.89,5.54-.9,2.39-1.35,5.21-1.35,8.45Z"/>
    <path class="cls-1" d="M243.98,90.94v-31.32h15.13v54.54h-14.52v-9.91h-.57c-1.23,3.2-3.27,5.76-6.12,7.71-2.85,1.94-6.33,2.91-10.42,2.91-3.65,0-6.85-.83-9.62-2.49-2.77-1.66-4.93-4.01-6.48-7.07-1.55-3.05-2.34-6.71-2.36-10.97v-34.73h15.13v32.03c.02,3.22.89,5.76,2.59,7.63,1.7,1.87,3.99,2.81,6.85,2.81,1.82,0,3.53-.42,5.12-1.26,1.59-.84,2.87-2.09,3.85-3.75.98-1.66,1.46-3.7,1.44-6.14Z"/>
    <path class="cls-1" d="M286.3,41.44v72.73h-15.13V41.44h15.13Z"/>
    <path class="cls-1" d="M302.11,114.16h-6.96l26.46-72.73h7.1l26.46,72.73h-6.96l-22.8-64.1h-.5l-22.8,64.1ZM307.11,86.29h36.08v5.97h-36.08v-5.97Z"/>
    <path class="cls-1" d="M374.26,41.44v72.73h-6.64V41.44h6.64Z"/>
  </g>
  <g>
    <path class="cls-1" d="M432.91,78.25l-4.1-38.06-18.55,42.07,9.72-.64,10.6-.72c.24-1.28,1.2-2.25,2.33-2.65Z"/>
    <g>
      <path class="cls-1" d="M482.53,96.8l-5.86-40.15-.72-5.22c-.64-.08-1.28-.32-1.77-.64l-37.02,29.23c.24.48.4,1.04.4,1.61v.24l43.44,16.14c.4-.48.88-.96,1.53-1.2Z"/>
      <path class="cls-1" d="M436.12,78.74l37.02-29.15c-.24-.4-.4-.88-.4-1.45l-42.56-9.96,4.34,39.91c.56.08,1.12.32,1.61.64Z"/>
      <path class="cls-1" d="M473.21,46.54c.4-1.04,1.37-1.77,2.41-2.01v-15.98l-42.4,8.67,39.99,9.31Z"/>
      <path class="cls-1" d="M434.03,85.16h0c-1.69,0-3.05-1.12-3.37-2.65l-19.99,1.28,30.83,34.85-7.47-33.48Z"/>
    </g>
    <g>
      <path class="cls-1" d="M480.28,100.1c0-.24,0-.4.08-.64l-43.28-16.06c-.32.56-.88,1.04-1.45,1.37l7.95,35.65,36.86-19.51c-.16-.24-.16-.48-.16-.8Z"/>
      <path class="cls-1" d="M484.46,103.63c-.24.08-.48.08-.72.08-1.12,0-2.09-.56-2.73-1.37l-33.48,17.75,41.27-6.34-4.34-10.12Z"/>
      <path class="cls-1" d="M497.22,61.79l-18.55-11.24c-.32.32-.72.56-1.12.72l6.58,45.37c.4,0,.72.08,1.12.24l22.8-28.67-10.84-6.42Z"/>
      <path class="cls-1" d="M477.23,44.53c1.53.4,2.73,1.77,2.73,3.45,0,.4-.08.8-.24,1.2l26.1,15.74-28.59-35.09v14.69Z"/>
      <path class="cls-1" d="M487.35,100.1c0,1.12-.56,2.17-1.37,2.81l4.01,9.39,16.3-39.26-19.75,24.81c.48.64.8,1.45.8,2.25Z"/>
    </g>
  </g>
</svg>